<svg xmlns="http://www.w3.org/2000/svg" width="20" height="20" fill="none" class="text-black dark:text-white"><path fill="currentColor" d="m14.54 3.262-3.136 4.655a.333.333 0 0 0 .495.437l3.087-2.677a.125.125 0 0 1 .208.096v8.379a.124.124 0 0 1-.22.08L5.643 3.07a1.6 1.6 0 0 0-1.22-.567h-.325A1.592 1.592 0 0 0 2.5 4.1v11.802a1.6 1.6 0 0 0 1.784 1.588 1.6 1.6 0 0 0 1.176-.751l3.136-4.655a.334.334 0 0 0-.495-.438L5.014 14.32a.124.124 0 0 1-.15.013.13.13 0 0 1-.058-.107V5.846a.125.125 0 0 1 .083-.118.12.12 0 0 1 .137.037l9.329 11.168a1.6 1.6 0 0 0 1.22.566h.325a1.614 1.614 0 0 0 1.479-.987c.08-.194.12-.401.121-.611V4.099a1.6 1.6 0 0 0-1.784-1.588 1.6 1.6 0 0 0-1.176.751M31.337"></path></svg>